<?xml version="1.0" ?><svg viewBox="0 0 24 24" xmlns="http://www.w3.org/2000/svg"><title/><g data-name="bill alternatif" id="bill_alternatif"><path d="M21,1H3A2,2,0,0,0,1,3V22a1,1,0,0,0,1,1c.46,0,.48-.1,2.5-1.72,2.86,2.29,2.11,2.31,5,0,2.85,2.28,2.11,2.32,5,0,2.86,2.29,2.11,2.31,5,0,2,1.65,2.24,1.95,2.92,1.62S23,23.47,23,3A2,2,0,0,0,21,1Zm0,18.92c-1.67-1.35-1.27-1.38-4,.8-2.85-2.28-2.11-2.32-5,0-2.85-2.28-2.1-2.32-5,0-2.58-2.06-2.22-2.23-4-.79V3H21Z"/><path d="M12.5,14H10a1,1,0,0,0,0,2h1v1a1,1,0,0,0,2,0V16A2.5,2.5,0,0,0,12.5,11c-.66,0-1.5.16-1.5-.5a.5.5,0,0,1,.5-.5H14a1,1,0,0,0,0-2H13V7a1,1,0,0,0-2,0V8.05A2.5,2.5,0,0,0,11.5,13h1A.5.5,0,0,1,12.5,14Z"/></g></svg>